<svg viewBox="0 0 320 95.05013632397696"><defs id="SvgjsDefs1073"><linearGradient id="SvgjsLinearGradient1078"><stop id="SvgjsStop1079" stop-color="#8f5e25" offset="0"></stop><stop id="SvgjsStop1080" stop-color="#fbf4a1" offset="0.5"></stop><stop id="SvgjsStop1081" stop-color="#8f5e25" offset="1"></stop></linearGradient><linearGradient id="SvgjsLinearGradient1082"><stop id="SvgjsStop1083" stop-color="#8f5e25" offset="0"></stop><stop id="SvgjsStop1084" stop-color="#fbf4a1" offset="0.5"></stop><stop id="SvgjsStop1085" stop-color="#8f5e25" offset="1"></stop></linearGradient></defs><g id="SvgjsG1074" featurekey="symbolFeature-0" transform="matrix(0.9154757817151258,0,0,0.9154757817151258,-8.618831650854165,-11.068102340626389)" fill="url(#SvgjsLinearGradient1078)"><title xmlns="http://www.w3.org/2000/svg">infinity, read, book, knowledge, idea, light bulb, creative</title><g xmlns="http://www.w3.org/2000/svg"><path d="M116.157,51.906c-1.434-.407-2.9-.73-4.375-1.008V49.156a3.633,3.633,0,0,0-3.063-3.6A66.45,66.45,0,0,0,75.6,49.5a17.218,17.218,0,0,1,2.773-3.88A19.851,19.851,0,0,0,64.2,12.09H64A20,20,0,0,0,44.159,31.108a19.739,19.739,0,0,0,5.284,14.34,18.941,18.941,0,0,1,2.838,3.982,66.475,66.475,0,0,0-32.936-3.879,3.634,3.634,0,0,0-3.064,3.6V50.9c-1.477.276-2.94.6-4.375,1.006a3.524,3.524,0,0,0-2.491,3.423v51.248a3.558,3.558,0,0,0,1.364,2.831,3.383,3.383,0,0,0,2.921.618c15.737-3.964,35.262-1.855,47.484,5.126a5.687,5.687,0,0,0,5.694,0c12.222-6.981,31.747-9.088,47.484-5.126a3.385,3.385,0,0,0,2.921-.618,3.558,3.558,0,0,0,1.364-2.831V55.329A3.524,3.524,0,0,0,116.157,51.906ZM108.4,47.525a1.641,1.641,0,0,1,1.382,1.631V97.4a1.669,1.669,0,0,1-1.7,1.642c-20.922.835-35.7,4.867-43.048,11.7v-43.2a9.442,9.442,0,0,0,5.572-2.6c-.026,1.506.037,3.084.111,4.315a2.012,2.012,0,0,0,.91,1.566,2.682,2.682,0,0,0,1.508.438,3.3,3.3,0,0,0,1.036-.171l.486-.158a23.827,23.827,0,0,0,4.476-1.8A3.222,3.222,0,0,0,80.5,66.814c.107-1.781.109-3.743.1-5.6a2.216,2.216,0,0,0-.861-1.759,2.556,2.556,0,0,0-2.216-.412,30.717,30.717,0,0,0-4.282,1.485,10.456,10.456,0,0,0,.394-2.82V57.7l0-.011v-.156a17.379,17.379,0,0,1,.851-5.34A64.257,64.257,0,0,1,108.4,47.525ZM71.528,59.071a7.526,7.526,0,0,1-7.54,6.532,7.63,7.63,0,0,1-7.533-6.532A27.648,27.648,0,0,0,71.528,59.071ZM73,62.871a25.093,25.093,0,0,1,5.018-1.89.8.8,0,0,1,.2-.027.484.484,0,0,1,.293.084.212.212,0,0,1,.084.183c.005,1.825,0,3.751-.1,5.474a1.4,1.4,0,0,1-.385.724,22.333,22.333,0,0,1-4.072,1.617l-.5.162a.869.869,0,0,1-.831-.055,41.716,41.716,0,0,1-.015-6.035S72.744,63.017,73,62.871ZM46.157,31.189A17.981,17.981,0,0,1,64,14.089h.178A17.851,17.851,0,0,1,76.929,44.243a19.173,19.173,0,0,0-5.265,12.688,26.359,26.359,0,0,1-6.675,1.129V48.314a1,1,0,0,0-2,0v9.747a26.256,26.256,0,0,1-6.669-1.13,19.829,19.829,0,0,0-5.412-12.844A17.755,17.755,0,0,1,46.157,31.189ZM18.281,49.156a1.641,1.641,0,0,1,1.382-1.631,51.547,51.547,0,0,1,8.139-.607,64.575,64.575,0,0,1,25.646,5.24,16.919,16.919,0,0,1,.9,5.374v.121a.3.3,0,0,0-.007.032,9.7,9.7,0,0,0,8.689,9.869v43.2c-10.359-9.606-33.3-11.394-43.111-11.709a1.555,1.555,0,0,1-1.64-1.64ZM30.7,106a72.15,72.15,0,0,0-17.489,2.091,1.381,1.381,0,0,1-1.2-.256,1.571,1.571,0,0,1-.593-1.254V55.329a1.52,1.52,0,0,1,1.037-1.5h0c1.232-.349,2.518-.632,3.829-.879V97.4a3.566,3.566,0,0,0,3.575,3.638c10.116.326,34.54,2.226,43.325,12.768a3.775,3.775,0,0,1-1-.393C53.7,108.574,42.246,106,30.7,106Zm85.946.581a1.571,1.571,0,0,1-.593,1.254,1.383,1.383,0,0,1-1.2.256c-16.454-4.146-36.131-2-48.964,5.329a3.77,3.77,0,0,1-1.008.394c4.358-5.231,15.406-11.655,43.335-12.769a3.665,3.665,0,0,0,3.568-3.638V52.95c1.312.248,2.6.531,3.83.88a1.521,1.521,0,0,1,1.036,1.5Z"></path><path d="M85.628,59.431a.965.965,0,0,0,.248-.032,46.866,46.866,0,0,1,12.141-1.616.964.964,0,0,0,1.033-.966,1,1,0,0,0-.966-1.032,48.086,48.086,0,0,0-12.7,1.677,1,1,0,0,0,.246,1.969Z"></path><path d="M85.628,65.268a.965.965,0,0,0,.248-.032A46.758,46.758,0,0,1,98.017,63.62a.962.962,0,0,0,1.033-.966,1,1,0,0,0-.966-1.032,48.021,48.021,0,0,0-12.7,1.677,1,1,0,0,0,.247,1.969Z"></path><path d="M98.064,71.286c-9.066-.135-20.189,2.653-26.986,6.76a1,1,0,0,0,1.034,1.711c6.508-3.931,17.165-6.6,25.925-6.471h.014a1,1,0,0,0,.013-2Z"></path><path d="M98.2,80.348c-5.241-.8-18.691,2.165-26.335,6.651a1,1,0,0,0,1.012,1.725c7.634-4.481,20.6-7.082,25.019-6.4a1,1,0,1,0,.3-1.976Z"></path><path d="M97.813,89.308c-5.245-.8-18.691,2.165-26.334,6.651a1,1,0,0,0,1.012,1.725c7.634-4.482,20.6-7.079,25.019-6.4a1,1,0,1,0,.3-1.976Z"></path><path d="M57.008,78.06c-6.216-3.988-18.75-6.807-27.918-7.531a1,1,0,1,0-.157,1.994c10.233.808,21.838,3.912,26.995,7.22a1,1,0,1,0,1.08-1.683Z"></path><path d="M29.013,64.337h.02a55.837,55.837,0,0,1,26.932,7,1,1,0,1,0,1.006-1.729,57.935,57.935,0,0,0-27.939-7.274,1,1,0,1,0-.019,2Z"></path><path d="M29.559,57.216c5.729-.384,13.474,1.383,17.144,2.76a1,1,0,1,0,.7-1.872c-3.574-1.342-11.616-3.31-17.981-2.884a1,1,0,0,0,.134,2Z"></path><path d="M55.183,88.724A1,1,0,0,0,56.2,87,57.375,57.375,0,0,0,39.173,81.06a1,1,0,1,0-.381,1.962A56.19,56.19,0,0,1,55.183,88.724Z"></path><path d="M56.585,95.959c-5.077-2.981-12.327-5.063-17.418-6.016A1,1,0,0,0,38.8,91.91c4.925.922,11.918,2.923,16.773,5.774a1,1,0,1,0,1.013-1.725Z"></path><path d="M30.021,91.433a38.211,38.211,0,0,0,4.447.6h0c.073.006.147.009.22.009a2.449,2.449,0,0,0,1.629-.586,2.3,2.3,0,0,0,.769-1.617c.094-1.583.091-4.17.09-6.451,0-.959,0-1.837.005-2.511A2.331,2.331,0,0,0,35.509,78.6a24.178,24.178,0,0,0-5.02-.768,2.146,2.146,0,0,0-1.576.544,2.472,2.472,0,0,0-.808,1.7c-.144,2.4-.216,6.895-.093,9.1A2.4,2.4,0,0,0,30.021,91.433ZM30.1,80.194a.474.474,0,0,1,.135-.32.177.177,0,0,1,.125-.047,22.239,22.239,0,0,1,4.6.7.329.329,0,0,1,.22.331c-.007.68-.006,1.566-.005,2.534,0,2.141,0,4.808-.086,6.332a.285.285,0,0,1-.089.227.513.513,0,0,1-.381.09A35.841,35.841,0,0,1,30.4,89.47c-.374-.073-.388-.324-.392-.407C29.892,86.959,29.964,82.491,30.1,80.194Z"></path><path d="M63.987,41.994a1.065,1.065,0,1,0,1.064,1.064A1.064,1.064,0,0,0,63.987,41.994Z"></path><path d="M58.34,39.979c2.879,0,4.494-1.407,5.692-3.661,1.216,2.259,2.824,3.659,5.6,3.662h.007a5.907,5.907,0,0,0,4.292-1.76A6.048,6.048,0,0,0,75.6,33.97a5.389,5.389,0,0,0-5.673-5.7h-.007a6.608,6.608,0,0,0-5.875,3.354,6.561,6.561,0,0,0-5.986-3.354h-.007a5.39,5.39,0,0,0-5.674,5.7v.021h0a6.031,6.031,0,0,0,1.667,4.227,5.906,5.906,0,0,0,4.291,1.759Zm6.954-6.5c1.063-2.183,2.55-3.208,4.624-3.21h.006A3.4,3.4,0,0,1,73.6,33.992a4.038,4.038,0,0,1-1.1,2.836,3.872,3.872,0,0,1-2.856,1.152h0c-2,0-3.166-.95-4.352-3.67A1.015,1.015,0,0,1,65.294,33.476Zm-10.919.515v-.019a3.393,3.393,0,0,1,3.673-3.706h.006a4.823,4.823,0,0,1,4.717,3.215,1.011,1.011,0,0,1,.009.812c-1.176,2.77-2.316,3.684-4.442,3.686h-.005a3.871,3.871,0,0,1-2.855-1.151A4.041,4.041,0,0,1,54.375,33.991Z"></path></g></g><g id="SvgjsG1075" featurekey="nameFeature-0" transform="matrix(0.8067118484879539,0,0,0.8067118484879539,118.03162342819915,23.997419940133007)" fill="url(#SvgjsLinearGradient1082)"><path d="M10.96 38.32 c0.2 0 0.4 0.2 0.4 0.44 l0 1.24 l-3.96 0 c-2.76 0 -4.96 -2.24 -4.96 -5.04 l0 -25.04 l1.36 0 c0.24 0 0.44 0.2 0.44 0.44 l0 10.44 c0.04 -0.44 0.56 -0.76 1.12 -0.76 l4.88 0 l0 1.2 c0 0.24 -0.2 0.44 -0.44 0.44 l-5.56 0 l0 13.48 c0 1.72 1.4 3.16 3.16 3.16 l3.56 0 z M14.96 20 l1.8 0 l0 1.32 s0.8 -1.32 3.52 -1.32 l4.56 0 l0 1.24 c0 0.24 -0.2 0.4 -0.44 0.4 l-4.92 0 c-2.8 0 -2.72 2.88 -2.72 2.88 l0 15.48 l-1.8 0 l0 -20 z M38.199999999999996 19.96 c2.76 0 4.96 2.28 4.96 5.04 l0 14.56 c0 0.24 -0.2 0.44 -0.44 0.44 l-10.04 0 c-2.76 0 -4.96 -2.24 -4.96 -5 l0 -2.08 c0 -2.8 2.2 -5.04 4.96 -5.04 l8.24 0 c0.24 0 0.4 -0.16 0.44 -0.44 l0 -2.6 c0 -1.76 -1.4 -3.2 -3.16 -3.2 l-8.36 0 c-0.2 0 -0.4 -0.2 -0.4 -0.44 l0 -1.24 l8.76 0 z M32.68 38.24 l8.68 0 l0 -8.84 c-0.08 0.08 -0.2 0.16 -0.32 0.16 l-8.36 0 c-1.76 0 -3.16 1.44 -3.16 3.2 l0 2.32 c0 1.76 1.4 3.16 3.16 3.16 z M54.31999999999999 39.6 l-8.4 -19.64 l1.52 0 c0.24 0 0.52 0.16 0.6 0.4 l7.04 17 l7.08 -17 c0.08 -0.24 0.36 -0.4 0.6 -0.4 l1.52 0 l-8.44 19.64 c-0.08 0.2 -0.36 0.4 -0.6 0.4 l-0.32 0 c-0.24 0 -0.52 -0.2 -0.6 -0.4 z M71.28 40 c-2.76 0 -4.96 -1.8 -4.96 -4.84 l0 -10.36 c0 -3 2.12 -4.8 4.84 -4.8 l6.32 0 c2.72 0 4.84 1.8 4.84 4.8 l0 5.44 c0 0.28 -0.2 0.48 -0.44 0.48 l-12.84 0 c-0.36 0 -0.68 -0.2 -0.88 -0.48 l-0.04 0 l0 4.88 c0 1.76 1.4 3.16 3.16 3.16 l10.28 0 c0.24 0 0.44 0.2 0.44 0.44 l0 1.28 l-10.72 0 z M77.48 21.64 l-6.32 0 c-1.72 0 -3.04 1.44 -3.04 3.2 l0 3.76 c0 0.24 0.16 0.4 0.44 0.44 l11.96 0 l0 -4.2 c0 -1.76 -1.32 -3.2 -3.04 -3.2 z M87.2 39.56 l0 -27.92 l1.36 0 c0.24 0 0.44 0.2 0.44 0.44 l0 27.88 l-1.36 0 c-0.24 0 -0.44 -0.16 -0.44 -0.4 z M93.91999999999999 39.56 l0 -19.56 l1.36 0 c0.24 0 0.44 0.16 0.44 0.4 l0 19.6 l-1.36 0 c-0.24 0 -0.44 -0.2 -0.44 -0.44 z M93.91999999999999 13 l0 -1.88 l1.4 0 c0.24 0 0.4 0.2 0.4 0.4 l0 1.88 l-1.4 0 c-0.24 0 -0.4 -0.16 -0.4 -0.4 z M115.44 39.56 l0 -14.72 c0 -1.76 -1.44 -3.2 -3.16 -3.2 l-8.76 0 c-0.24 0 -0.44 0.2 -0.44 0.44 l0 17.48 c0 0.24 -0.2 0.44 -0.44 0.44 l-1.36 0 l0 -18.24 c0 -0.96 0.8 -1.8 1.76 -1.8 l9.24 0 c2.72 0 4.96 2.28 4.96 5.04 l0 15 l-1.4 0 c-0.2 0 -0.4 -0.2 -0.4 -0.44 z M136.72 19.96 c0.24 0 0.44 0.2 0.44 0.48 l0 24.28 c0 2.8 -2.2 5.04 -4.96 5.04 l-9.4 0 l0 -1.32 c0 -0.24 0.2 -0.44 0.4 -0.44 l9 0 c1.76 0 3.16 -1.32 3.16 -3.08 l0 -5.52 c-0.16 0.36 -0.56 0.56 -1.08 0.56 l-7.36 0.04 c-2.76 0 -4.96 -2.28 -4.96 -5.04 l0 -9.96 c0 -2.76 2.2 -5.04 4.96 -5.04 l9.8 0 z M126.91999999999999 38.32 l7.72 0 c0.4 0 0.72 -0.32 0.72 -0.72 l0 -15.96 l-8.44 0 c-1.76 0 -3.16 1.44 -3.16 3.2 l0 10.28 c0 1.76 1.4 3.2 3.16 3.2 z M166.64 20 c2.76 0 4.96 1.88 4.96 4.88 l0 10.24 c0 3 -2.2 4.88 -4.96 4.88 l-10.28 0 c-0.24 0 -0.44 -0.2 -0.44 -0.44 l0 -29.56 l1.36 0 c0.24 0 0.44 0.2 0.44 0.44 l0 10.32 c0.04 -0.44 0.56 -0.76 1.12 -0.76 l7.8 0 z M169.88 35.16 l0 -10.32 c0 -1.76 -1.48 -3.2 -3.24 -3.2 l-8.24 0 c-0.36 0.04 -0.64 0.32 -0.68 0.72 l0 3.72 l0 12.24 l8.92 0 c1.76 0 3.24 -1.4 3.24 -3.16 z M186.99999999999997 40.28 l-6.04 0 c-2.76 0 -4.96 -2.24 -4.96 -5 l0 -10.52 c0 -2.76 2.2 -5.04 4.96 -5.04 l6.04 0 c2.72 0 4.92 2.28 4.92 5.04 l0 10.52 c0 2.76 -2.2 5 -4.92 5 z M186.99999999999997 21.4 l-6.04 0 c-1.76 0 -3.16 1.44 -3.16 3.2 l0 10.84 c0 1.76 1.4 3.16 3.16 3.16 l6.04 0 c1.72 0 3.12 -1.4 3.12 -3.16 l0 -10.84 c0 -1.76 -1.4 -3.2 -3.12 -3.2 z M207.67999999999998 40.28 l-6.04 0 c-2.76 0 -4.96 -2.24 -4.96 -5 l0 -10.52 c0 -2.76 2.2 -5.04 4.96 -5.04 l6.04 0 c2.72 0 4.92 2.28 4.92 5.04 l0 10.52 c0 2.76 -2.2 5 -4.92 5 z M207.67999999999998 21.4 l-6.04 0 c-1.76 0 -3.16 1.44 -3.16 3.2 l0 10.84 c0 1.76 1.4 3.16 3.16 3.16 l6.04 0 c1.72 0 3.12 -1.4 3.12 -3.16 l0 -10.84 c0 -1.76 -1.4 -3.2 -3.12 -3.2 z M227.92 29.48 l-0.68 0.36 l4.96 10.12 l-1.6 0 c-0.24 0 -0.48 -0.16 -0.6 -0.36 l-4.6 -9.52 l-5.48 0 c-0.36 0 -0.64 0.32 -0.68 0.68 l0 8.8 c0 0.24 -0.2 0.44 -0.44 0.44 l-1.36 0 l0 -27.16 l1.36 0 c0.24 0 0.44 0.2 0.44 0.44 l0 15.8 c0.12 -0.4 0.56 -0.68 1.12 -0.68 l5.16 0 c1.76 0 3.72 -1.4 3.72 -3.16 l0 -4.84 c0 -0.24 0.2 -0.44 0.44 -0.44 l1.36 0 l0 5.12 c0 1.8 -1.52 3.48 -3.12 4.4 z M248.64 33.04 c0 -0.24 -0.2 -0.52 -0.4 -0.56 l-12.48 -4.48 c-0.6 -0.2 -1.08 -0.88 -1.08 -1.52 l0 -2 c0 -2.76 2.2 -4.48 4.96 -4.48 l9.2 0 l0 1.2 c0 0.24 -0.2 0.44 -0.44 0.44 l-8.76 0 c-1.76 0 -3.16 1.12 -3.16 2.88 l0 1.48 c0 0.24 0.2 0.48 0.4 0.56 l12.4 4.48 c0.6 0.2 1.08 0.88 1.08 1.52 l0 3.04 c0 2.8 -2.24 4.4 -4.96 4.4 l-10.76 0 l0 -1.24 c0 -0.24 0.2 -0.44 0.44 -0.44 l10.32 0 c1.72 0 3.24 -0.96 3.24 -2.68 l0 -2.6 z"></path></g></svg>